<svg width="128" height="128" viewBox="0 0 128 128" fill="none" xmlns="http://www.w3.org/2000/svg">
<g clip-path="url(#clip0_35_2)">
<path d="M62.9601 0.241995C62.7281 0.376995 61.7571 1.76999 60.8001 3.33899C58.4001 7.27899 58.3741 7.28099 55.1501 3.88899C53.0521 1.68099 52.5451 1.27699 51.8701 1.28199C51.4301 1.28399 50.8751 1.43399 50.6351 1.61399C50.3951 1.79399 49.7191 3.22599 49.1311 4.79699C47.7851 8.39699 47.7211 8.51199 46.9751 8.65699C46.5151 8.74299 45.6321 8.24999 43.5121 6.72799C41.9471 5.60299 40.4121 4.68299 40.1011 4.68299C38.8101 4.68299 38.4461 5.38899 37.8311 9.08299C37.0511 13.78 37.0771 13.764 32.8431 11.841C31.1331 11.065 29.5131 10.431 29.2401 10.431C28.9661 10.431 28.4481 10.724 28.0901 11.083C27.4381 11.735 27.4371 11.738 27.6151 15.329L27.7931 18.924L27.1131 19.288C26.5111 19.61 26.0961 19.571 23.4291 18.94C19.9491 18.118 19.2131 18.14 18.5091 19.09L17.9931 19.783L18.6851 22.747C19.0651 24.377 19.4301 25.947 19.4991 26.234C19.5661 26.521 19.4491 26.98 19.2391 27.254C18.8911 27.702 18.5221 27.744 15.2991 27.694C9.84709 27.608 9.53809 28.076 11.7891 32.994C12.5071 34.554 13.0941 35.974 13.0941 36.144C13.0941 37.042 12.3771 37.368 9.30009 37.871C7.57809 38.151 6.08209 38.381 5.97409 38.381C5.86709 38.381 5.54409 38.616 5.25709 38.903C4.32009 39.839 4.58609 40.719 6.71009 43.717C9.35609 47.452 9.35209 47.467 4.98009 49.138C0.00909281 51.04 -0.091907 51.508 3.69309 55.098C7.21809 58.442 7.22309 58.393 3.23209 60.902C0.208093 62.8 0.162093 62.846 0.0850931 63.876C-0.00790692 65.129 0.0140929 65.151 3.62309 67.356C7.19309 69.536 7.19309 69.602 3.69009 72.916C-0.0779068 76.48 0.0380931 77 5.01309 78.877C9.36009 80.517 9.36609 80.537 6.71509 84.271C5.21309 86.388 4.73409 87.271 4.73409 87.924C4.73409 89.147 5.37109 89.459 9.17409 90.098C12.3801 90.638 13.0941 90.955 13.0941 91.839C13.0941 92.021 12.5061 93.451 11.7871 95.016C9.55109 99.886 9.80609 100.291 15.0971 100.291C20.0271 100.291 19.8961 100.141 18.8341 104.585C18.0341 107.935 18.0211 108.577 18.7461 109.3C19.3001 109.856 20.3461 109.794 23.6161 109.011C26.1151 108.415 26.5531 108.374 27.1321 108.683L27.7921 109.037L27.6151 112.631C27.4371 116.224 27.4381 116.226 28.0901 116.879C28.4481 117.239 28.9741 117.531 29.2551 117.531C29.5371 117.531 31.1581 116.901 32.8591 116.127C37.0791 114.211 37.0531 114.195 37.8321 118.877C38.4491 122.588 38.8091 123.277 40.1261 123.277C40.4531 123.277 41.9561 122.397 43.4661 121.319C46.1201 119.426 46.8081 119.129 47.5151 119.579C47.6971 119.694 48.4051 121.249 49.0871 123.034C50.0901 125.659 50.4571 126.344 51.0161 126.61C52.0781 127.12 52.7361 126.71 55.2341 123.99C58.2501 120.704 58.3741 120.72 60.8361 124.71C63.5561 129.116 64.2601 129.106 67.0481 124.621C69.4501 120.757 69.4221 120.759 72.6691 124.151C74.8261 126.401 75.2851 126.761 76.0121 126.761C76.4761 126.761 77.0311 126.586 77.2421 126.373C77.4561 126.16 78.1621 124.587 78.8101 122.877C79.4591 121.167 80.1311 119.677 80.3051 119.567C80.9921 119.131 81.7031 119.437 84.3531 121.319C85.9131 122.427 87.3811 123.279 87.7301 123.279C89.0261 123.279 89.4941 122.359 90.0321 118.744C90.4921 115.662 90.5861 115.366 91.1921 115.059C91.7881 114.757 92.1461 114.859 94.9421 116.129C96.6431 116.899 98.2651 117.531 98.5461 117.531C98.8281 117.531 99.3621 117.229 99.7301 116.859L100.402 116.189L100.218 112.741C100.041 109.451 100.058 109.273 100.582 108.798C101.122 108.31 101.178 108.312 104.197 109.002C107.853 109.837 108.535 109.859 109.222 109.172C109.893 108.502 109.886 108.354 108.968 104.482C107.938 100.136 107.8 100.292 112.748 100.292C116.122 100.292 116.498 100.243 116.928 99.769C117.646 98.976 117.475 98.067 116.032 94.99C115.303 93.44 114.712 92.03 114.717 91.855C114.741 90.941 115.46 90.628 118.782 90.088C120.815 89.759 122.335 89.378 122.611 89.128C123.534 88.295 123.195 87.21 121.088 84.255C118.446 80.552 118.458 80.517 122.687 78.958C127.751 77.092 127.896 76.47 124.106 72.868C120.596 69.533 120.594 69.551 124.439 67.191C129.087 64.338 129.094 63.695 124.521 60.856C120.588 58.416 120.591 58.45 124.116 55.103C127.896 51.51 127.794 51.04 122.821 49.138C118.433 47.459 118.419 47.418 121.086 43.758C122.674 41.578 123.068 40.855 123.068 40.108C123.068 38.802 122.482 38.51 118.632 37.888C115.416 37.368 114.708 37.053 114.708 36.138C114.708 35.964 115.296 34.564 116.015 33.025C117.421 30.012 117.619 28.805 116.823 28.085C116.395 27.698 115.823 27.642 112.756 27.693C109.548 27.747 109.138 27.701 108.693 27.254C108.207 26.766 108.213 26.697 108.971 23.529C109.902 19.649 109.906 19.554 109.141 18.835C108.364 18.105 107.879 18.117 104.315 18.956C101.718 19.568 101.288 19.609 100.698 19.293L100.028 18.933L100.213 15.351L100.399 11.771L99.7291 11.101C99.3601 10.731 98.8381 10.431 98.5661 10.431C98.2961 10.431 96.6821 11.071 94.9831 11.852C92.1451 13.158 91.8401 13.245 91.2261 12.924C90.6141 12.604 90.5121 12.287 89.9891 9.09499C89.3861 5.40199 89.0121 4.68299 87.7011 4.68299C87.3901 4.68299 85.8481 5.60799 84.2751 6.73799C81.6911 8.59399 81.3451 8.76999 80.7011 8.54499C80.1681 8.35899 79.8581 7.95499 79.4801 6.94599C79.2001 6.20399 78.6631 4.77399 78.2861 3.76899C77.5241 1.74099 77.0991 1.28699 75.9581 1.28699C75.3211 1.28699 74.7451 1.74499 72.6781 3.89099C69.4281 7.26599 69.4171 7.26499 67.0281 3.34599C66.0731 1.77999 65.0751 0.381995 64.8101 0.239995C64.2131 -0.0800053 63.5101 -0.0800053 62.9601 0.241995ZM65.9201 12.04C68.7501 14.054 67.2461 18.79 63.7761 18.79C60.4081 18.79 58.7121 14.733 61.1161 12.43C62.4741 11.13 64.4191 10.971 65.9201 12.04ZM62.3631 24.547C64.2181 25.252 64.9791 24.829 69.2151 20.747L72.3971 17.677L73.7441 17.857C77.9691 18.417 86.3711 22.107 91.1991 25.523C95.6351 28.663 101.531 35.057 104.044 39.453L104.581 40.395L102.201 45.759C100.891 48.709 99.8191 51.432 99.8191 51.812C99.8191 52.69 100.395 54.079 100.949 54.538C101.183 54.733 103.406 55.803 105.888 56.916L110.398 58.941L110.576 60.089C110.806 61.584 110.836 65.256 110.628 66.299L110.465 67.115H107.89C104.903 67.115 105.134 66.848 104.972 70.511C104.854 73.167 104.212 74.635 102.752 75.586C100.375 77.137 96.4481 76.856 94.7821 75.016C94.5271 74.732 94.0301 73.311 93.6771 71.856C92.6471 67.602 91.2641 65.216 88.4841 62.891C87.6061 62.158 86.8891 61.473 86.8891 61.369C86.8891 61.267 87.8541 60.454 89.0341 59.566C93.3321 56.326 95.8041 52.554 96.0741 48.819C96.5931 41.693 90.9161 35.052 82.4721 32.899C80.4701 32.389 79.6151 32.373 54.8481 32.373C40.7911 32.373 29.2881 32.281 29.2881 32.169C29.2881 31.906 32.4131 28.874 34.2531 27.353C39.3071 23.175 45.8711 19.888 52.6701 18.133L55.0201 17.523L58.3601 20.91C60.1991 22.773 62.0001 24.41 62.3631 24.547ZM20.3001 46.34C21.8391 47.348 22.4701 49.88 21.5601 51.402C20.1551 53.758 16.5941 53.857 15.1871 51.58C13.1411 48.271 17.0821 44.231 20.3001 46.34ZM110.972 46.47C114.998 48.924 111.878 54.963 107.568 53.056C104.691 51.783 104.598 47.85 107.413 46.416C108.587 45.816 109.936 45.837 110.973 46.469M32.1631 61.5V76.52H18.8831L18.3571 74.235C17.3211 69.735 16.8851 65.079 17.1461 61.266L17.3281 58.587L21.8931 56.54C24.7571 55.257 26.5991 54.278 26.8361 53.915C27.8741 52.331 27.7761 51.2 26.3181 47.982L25.6381 46.48H32.1611V61.5M70.3901 47.132C73.2331 47.872 74.7351 49.377 74.7391 51.487C74.7411 53.037 73.9741 54.007 72.0691 54.867C70.7211 55.477 70.5071 55.492 62.0061 55.575L53.3201 55.659V46.739H61.1021C67.1801 46.739 69.2141 46.825 70.3901 47.132ZM67.4561 68.686C68.8661 69.078 70.5321 70.302 71.3861 71.574C72.2841 72.911 72.8091 74.65 74.0531 80.41C75.1031 85.28 75.7801 86.87 77.6731 88.942C80.0181 91.508 79.4731 91.408 91.1871 91.408C96.7971 91.408 101.385 91.498 101.385 91.608C101.385 91.805 97.5221 96.372 97.3551 96.372C97.3071 96.372 95.2891 95.95 92.8711 95.433C86.0421 93.975 85.7961 94.146 84.2291 101.465L83.2211 106.167L82.3111 106.615C80.7931 107.365 75.8581 108.907 73.3011 109.435C69.0731 110.305 64.4731 110.597 60.4301 110.256C53.5371 109.671 44.4101 106.997 44.0531 105.456C43.9781 105.129 43.5181 103.013 43.0351 100.752C42.5501 98.492 41.9611 96.348 41.7251 95.988C40.5951 94.264 39.4071 94.158 34.1781 95.314C32.1981 95.754 30.4701 96.11 30.3381 96.11C30.0901 96.11 26.4151 91.861 26.4151 91.575C26.4151 91.485 35.1431 91.381 45.8111 91.345L65.2061 91.279L65.2761 84.389C65.3261 79.524 65.2581 77.392 65.0461 77.139C64.8121 76.855 63.5611 76.781 59.0351 76.781H53.3201V68.421L59.9171 68.422C63.5431 68.424 66.9371 68.542 67.4561 68.686ZM37.5701 100.02C40.6541 101.9 39.1751 106.824 35.5271 106.82C31.7871 106.82 30.4001 101.94 33.5871 99.994C34.6421 99.351 36.4951 99.364 37.5701 100.02ZM94.0501 100.226C95.5621 101.334 96.0651 103.639 95.1291 105.176C92.6691 109.21 86.5171 106.003 88.5721 101.757C89.5821 99.672 92.2671 98.919 94.0501 100.226Z" fill="white"/>
</g>
<defs>
<clipPath id="clip0_35_2">
<rect width="128" height="128" fill="white"/>
</clipPath>
</defs>
</svg>
