<svg width="430" height="260" viewBox="0 0 430 260" fill="none" xmlns="http://www.w3.org/2000/svg">
<path d="M194 7C192.069 10.117 190.428 11.7335 187 14.5C155.006 40.8487 137.754 53.2838 108 78C95.0648 89.9191 91.2032 96.0003 106 103C124.105 105.194 136.117 104.312 159.5 100.5C182.772 97.5347 194.624 95.187 221 94C240.586 92.54 237.897 97.4426 224 110L36.9998 242C0.562263 259.477 -13.6748 264.919 26.4998 228.5C50.7134 209.225 62.6231 199.103 101 174C203.005 115.07 264.397 88.4822 382 53.5" stroke="white" stroke-width="2"/>
<path d="M381.715 52.5415C381.905 53.1805 382.095 53.8195 382.285 54.4585C382.98 54.2341 383.676 54.0098 384.371 53.7855C396.885 49.748 409.4 45.7105 421.914 41.6729C422.61 41.4486 423.305 41.2243 424 41C423.295 41.1924 422.59 41.3847 421.886 41.5771C409.2 45.0395 396.515 48.502 383.829 51.9645C383.124 52.1568 382.42 52.3492 381.715 52.5415Z" fill="white"/>
<path d="M115 35.5C111.069 51.9179 102.455 129.199 101.5 146C100.843 156.746 100.346 162.772 101 173.5" stroke="white" stroke-width="2"/>
<path d="M102 173.977C101.333 173.992 100.667 174.008 100 174.023C100.028 174.48 100.057 174.914 100.09 175.367C100.443 183.388 103.089 191.664 108.623 197.495C108.915 197.836 109.201 198.163 109.5 198.5C109.227 198.142 108.967 197.794 108.701 197.433C103.622 191.138 101.771 183.179 101.989 175.297C101.989 174.852 101.994 174.426 102 173.977Z" fill="white"/>
<path d="M292.342 72.5103C292.516 72.4531 292.687 72.4671 292.856 72.5522C293.019 72.6214 293.129 72.7431 293.186 72.9173C293.243 73.0915 293.229 73.2627 293.144 73.431C293.001 73.6886 292.828 73.9909 292.626 74.3378C292.44 74.6796 292.045 75.2918 291.44 76.1745C290.851 77.0521 290.244 77.8478 289.619 78.5618C289.01 79.2706 288.245 79.9865 287.324 80.7097C286.415 81.4119 285.509 81.9111 284.606 82.2075C284.02 82.3998 283.424 82.5078 282.818 82.5315C281.69 82.5685 280.624 82.2343 279.621 81.5288C278.628 80.8023 277.729 79.7468 276.923 78.3623C276.865 78.2935 276.824 78.2195 276.798 78.1403C276.4 77.4112 276.048 76.6586 275.741 75.8824C275.084 74.2035 274.586 72.3671 274.247 70.3733C273.909 68.3795 273.806 66.5449 273.94 64.8695C274.074 63.1941 274.475 62.0627 275.141 61.4754C275.427 61.2237 275.768 61.0856 276.163 61.061C276.559 61.0364 276.914 61.1303 277.229 61.3425C277.676 61.5817 278.03 62.0445 278.29 62.7308C278.566 63.4119 278.742 64.2402 278.817 65.2156C278.907 66.1858 278.955 67.1874 278.961 68.2204C278.983 69.2483 278.941 70.3496 278.836 71.5245C278.73 72.6993 278.628 73.6976 278.53 74.5194C278.447 75.336 278.351 76.1393 278.242 76.9294C278.16 77.5351 278.287 78.0812 278.622 78.5676C279.863 80.3704 281.25 81.2568 282.784 81.2269C283.29 81.2713 283.818 81.1683 284.367 80.9178C284.927 80.6462 285.436 80.3823 285.896 80.1262C286.366 79.8489 286.84 79.4742 287.316 79.002C287.809 78.5246 288.238 78.0944 288.603 77.7113C288.979 77.3072 289.355 76.8503 289.732 76.3408C290.119 75.8102 290.429 75.3662 290.663 75.0089C290.896 74.6515 291.127 74.2863 291.355 73.9131C291.579 73.5241 291.722 73.2665 291.786 73.1403C291.865 73.0089 291.927 72.9011 291.969 72.817C292.059 72.6645 292.184 72.5623 292.342 72.5103ZM276.954 75.0894C277.006 75.1951 277.087 75.256 277.198 75.2724C277.303 75.2728 277.372 75.2152 277.404 75.0994C277.608 74.2781 277.72 72.9082 277.739 70.9899C277.769 69.0504 277.68 67.2027 277.472 65.4467C277.279 63.6855 276.991 62.7012 276.607 62.494C276.413 62.3824 276.252 62.3474 276.126 62.389C276.078 62.4046 276.033 62.4281 275.991 62.4596C275.652 62.7637 275.429 63.6877 275.322 65.2315C275.21 66.7594 275.289 68.4964 275.56 70.4424C275.846 72.3833 276.311 73.9323 276.954 75.0894ZM311.215 66.2347C311.394 66.1934 311.563 66.2258 311.721 66.3319C311.873 66.4222 311.97 66.557 312.011 66.7364C312.053 66.9158 312.02 67.0843 311.914 67.2419C311.739 67.5099 311.519 67.8278 311.254 68.1956C310.988 68.5633 310.456 69.2118 309.656 70.1411C308.851 71.0545 308.022 71.8967 307.17 72.6676C306.334 73.4334 305.279 74.2271 304.005 75.0488C302.731 75.8705 301.461 76.4894 300.194 76.9053C298.584 77.4515 296.936 77.668 295.25 77.555C294.712 77.521 294.236 77.4319 293.82 77.2877C293.415 77.1225 293.094 76.9471 292.858 76.7616C292.616 76.5602 292.42 76.3353 292.268 76.0869C292.095 75.8279 291.983 75.5928 291.931 75.3818C291.864 75.1759 291.82 74.9623 291.8 74.7408C291.73 73.9394 291.899 73.0679 292.31 72.1263C292.72 71.1847 293.253 70.3781 293.909 69.7065C294.582 69.0296 295.24 68.603 295.884 68.4267C296.311 68.2863 296.725 68.3172 297.125 68.5193C297.54 68.7161 297.836 69.0311 298.014 69.4641C298.342 70.1981 298.141 71.0273 297.41 71.9517C296.339 73.2328 294.989 74.0885 293.358 74.5186C293.274 74.5287 293.208 74.568 293.16 74.6363C293.112 74.7046 293.109 74.7757 293.151 74.8497C293.305 75.6937 294.036 76.1555 295.343 76.2352C296.512 76.3248 297.704 76.2142 298.918 75.9034C300.126 75.5768 301.214 75.1496 302.181 74.6216C303.147 74.0936 304.104 73.4549 305.051 72.7055C305.998 71.9561 306.786 71.2587 307.416 70.6132C308.057 69.9468 308.661 69.2749 309.228 68.5975C309.806 67.8991 310.19 67.4134 310.381 67.1401C310.588 66.8617 310.731 66.6568 310.811 66.5254C310.917 66.3678 311.052 66.2709 311.215 66.2347ZM293.429 72.8903C293.316 73.2429 293.445 73.341 293.815 73.1846C294.464 72.9187 295.218 72.3555 296.076 71.495C296.203 71.348 296.311 71.2246 296.401 71.1249C296.783 70.6312 296.914 70.255 296.794 69.9962C296.721 69.8272 296.645 69.7293 296.566 69.7026C296.482 69.6601 296.366 69.6543 296.218 69.6852C295.701 69.8199 295.167 70.197 294.616 70.8164C294.081 71.4307 293.685 72.122 293.429 72.8903ZM326.461 60.7553C326.635 60.6981 326.799 60.7147 326.951 60.805C327.114 60.8742 327.224 60.9959 327.281 61.1701C327.339 61.3443 327.333 61.5129 327.263 61.676C326.338 63.506 324.941 65.289 323.073 67.0251C321.205 68.7613 319.312 69.9439 317.396 70.573C316.985 70.7082 316.581 70.8144 316.185 70.8917C315.373 71.0883 314.566 71.0899 313.766 70.8966C312.961 70.6874 312.248 70.3073 311.629 69.7564C311.503 69.6399 311.438 69.4947 311.433 69.3207C311.413 69.152 311.458 68.9967 311.57 68.8549C311.681 68.7131 311.824 68.6399 311.998 68.6355C312.182 68.6099 312.345 68.6528 312.487 68.7641C313.238 69.2893 314.065 69.5091 314.967 69.4236C315.879 69.317 316.645 68.9252 317.265 68.2481C317.535 67.9489 317.642 67.6068 317.585 67.2218C317.54 66.8157 317.336 66.5144 316.973 66.3178C316.61 66.1211 316.229 65.9745 315.828 65.8778C315.033 65.7003 314.313 65.3755 313.667 64.9035C313.567 64.8135 313.451 64.7813 313.319 64.8071C313.187 64.8329 313.095 64.8983 313.042 65.0035L311.798 67.3064C311.676 67.5219 311.486 67.637 311.227 67.6517C310.969 67.6663 310.777 67.5627 310.651 67.3407C310.51 67.124 310.506 66.8974 310.639 66.6608L313.15 62.0472C313.4 61.4212 313.725 60.8323 314.122 60.2807C314.218 60.1441 314.347 60.0577 314.511 60.0216C314.69 59.9802 314.856 60.0047 315.009 60.095C315.161 60.1853 315.258 60.3201 315.299 60.4995C315.335 60.663 315.316 60.8184 315.242 60.9657L314.333 62.606C314.205 62.9111 314.185 63.2246 314.274 63.5465C314.357 63.7998 314.556 64.0063 314.872 64.1658C315.198 64.3043 315.642 64.4565 316.206 64.6225C316.79 64.7463 317.329 64.9728 317.823 65.3017C318.217 65.5934 318.508 65.9716 318.696 66.4362C318.894 66.8798 318.95 67.3439 318.863 67.8284C318.842 67.9759 318.889 68.092 319.004 68.1769C319.136 68.2565 319.267 68.2571 319.399 68.1786C322.259 66.4154 324.491 64.0511 326.096 61.0857C326.165 60.9226 326.287 60.8125 326.461 60.7553ZM341.856 55.8323C342.03 55.7751 342.201 55.7891 342.369 55.8742C342.532 55.9434 342.643 56.0651 342.7 56.2393C342.757 56.4135 342.743 56.5847 342.658 56.753C342.546 57.0002 342.387 57.3157 342.179 57.6995C341.983 58.0623 341.59 58.6825 341.001 59.56C340.428 60.4323 339.831 61.2334 339.211 61.9632C338.607 62.6878 337.855 63.417 336.956 64.1508C336.067 64.8636 335.18 65.3656 334.293 65.6567C333.644 65.8699 332.963 65.9617 332.252 65.9322C330.65 65.8617 329.205 65.0119 327.915 63.3828C326.626 61.7536 325.603 59.4932 324.847 56.6016C324.789 56.4801 324.7 56.3954 324.579 56.3474C324.458 56.2994 324.337 56.3041 324.216 56.3616C323.566 56.6274 322.903 56.9064 322.227 57.1985C321.546 57.4748 320.96 57.7199 320.469 57.9338C319.973 58.1318 319.524 58.3142 319.123 58.4811C318.7 58.6373 318.381 58.7597 318.164 58.8483C317.948 58.937 317.832 58.9839 317.816 58.9891L317.768 59.0047C317.599 59.0777 317.433 59.0796 317.27 59.0103C317.102 58.9252 316.989 58.7956 316.932 58.6214C316.875 58.4472 316.881 58.2786 316.95 58.1155C317.019 57.9525 317.141 57.8423 317.315 57.7851C317.331 57.7799 317.455 57.7304 317.688 57.6366C317.92 57.5428 318.252 57.4073 318.685 57.23C319.103 57.058 319.575 56.8677 320.103 56.6593C320.61 56.4402 321.22 56.1873 321.933 55.9007C322.64 55.5982 323.335 55.3088 324.016 55.0325C324.291 54.9073 324.392 54.6284 324.32 54.1959C324.14 53.1673 324.008 52.1495 323.923 51.1424C323.854 50.1302 323.829 49.1471 323.849 48.1933C323.869 47.2394 323.978 46.4229 324.176 45.7439C324.39 45.0597 324.69 44.6105 325.076 44.3961C325.673 44.0773 326.276 44.2302 326.884 44.8549C327.278 45.2519 327.563 46.2019 327.741 47.7048C327.913 49.1919 327.974 50.9262 327.923 52.9076C327.917 53.0499 327.935 53.1581 327.977 53.232C328.029 53.285 328.077 53.3221 328.119 53.3433C328.156 53.3488 328.198 53.3437 328.245 53.3281C331.799 51.9158 334.375 50.9471 335.974 50.422C336.149 50.3648 336.312 50.3813 336.464 50.4716C336.633 50.5567 336.745 50.6864 336.803 50.8605C336.855 51.0189 336.838 51.1822 336.753 51.3505C336.684 51.5135 336.562 51.6237 336.388 51.6809C333.918 52.4919 331.201 53.5154 328.239 54.7511C328.096 54.7979 327.999 54.8475 327.946 54.9C327.909 54.9473 327.885 55.0341 327.873 55.1606C327.857 56.4465 327.781 58.2171 327.644 60.4722C328.96 63.145 330.519 64.5277 332.321 64.6201C332.838 64.6435 333.365 64.5668 333.903 64.3901C334.442 64.2133 334.941 63.9705 335.401 63.6616C335.877 63.3475 336.35 62.9728 336.821 62.5374C337.308 62.0969 337.742 61.6562 338.124 61.2151C338.505 60.7741 338.876 60.3015 339.237 59.7971C339.613 59.2876 339.924 58.8436 340.168 58.4652C340.423 58.0658 340.654 57.6742 340.861 57.2904C341.084 56.9014 341.233 56.6333 341.307 56.486C341.398 56.3336 341.459 56.2258 341.491 56.1627C341.56 55.9996 341.682 55.8895 341.856 55.8323ZM325.571 53.7588C325.627 54.1438 325.743 54.3077 325.917 54.2505C326.044 54.2089 326.168 54.1594 326.289 54.102C326.521 54.0081 326.62 53.8267 326.584 53.5578C326.642 48.8726 326.432 46.2838 325.955 45.7915C325.892 45.7069 325.811 45.6722 325.71 45.6876C325.605 45.6871 325.531 45.729 325.488 45.8131C325.254 46.3286 325.131 47.3426 325.119 48.8552C325.102 50.3519 325.252 51.9864 325.571 53.7588ZM326.479 57.5655C326.622 57.5188 326.7 57.1686 326.713 56.5151C326.742 55.8565 326.691 55.4873 326.56 55.4076C326.302 55.3696 326.101 55.453 325.958 55.6579C325.905 55.7631 325.906 55.9818 325.963 56.3141C326.03 56.6254 326.118 56.9209 326.228 57.2007C326.332 57.4647 326.416 57.5863 326.479 57.5655ZM356.115 51.2031C356.289 51.1459 356.46 51.1599 356.629 51.245C356.792 51.3142 356.902 51.436 356.959 51.6101C357.016 51.7843 357.01 51.953 356.941 52.116C356.813 52.3684 356.646 52.6865 356.439 53.0704C356.226 53.4383 355.82 54.0716 355.22 54.9702C354.631 55.8477 354.022 56.6619 353.391 57.4127C352.755 58.1477 351.961 58.882 351.009 59.6156C350.057 60.3492 349.106 60.8719 348.156 61.1839C346.705 61.6781 345.258 61.6794 343.816 61.1881C343.269 61.0169 342.814 60.7013 342.453 60.2411C342.091 59.781 341.845 59.3266 341.716 58.878C341.586 58.4294 341.509 57.9284 341.485 57.3749C341.461 56.8214 341.455 56.4287 341.467 56.1968C341.494 55.9598 341.519 55.7675 341.541 55.62C341.589 55.4463 341.684 55.3097 341.827 55.2102C341.97 55.1107 342.125 55.0772 342.294 55.1096C342.478 55.1367 342.62 55.2217 342.72 55.3645C342.835 55.502 342.876 55.655 342.844 55.8236C342.838 55.9131 342.822 56.0501 342.795 56.2344C342.778 56.3977 342.769 56.6902 342.767 57.1119C342.781 57.5283 342.827 57.908 342.904 58.2509C342.982 58.5938 343.13 58.9397 343.35 59.2886C343.581 59.6164 343.872 59.8364 344.225 59.9487C345.088 60.2266 345.968 60.2886 346.864 60.1345C347.756 59.9646 348.558 59.6573 349.272 59.2125C350.001 58.7625 350.713 58.2044 351.406 57.5382C352.11 56.8509 352.701 56.1921 353.178 55.5618C353.671 54.9263 354.125 54.2774 354.539 53.6152C354.969 52.9478 355.266 52.4642 355.431 52.1646C355.59 51.8491 355.697 51.6387 355.75 51.5335C355.835 51.3653 355.957 51.2551 356.115 51.2031ZM340.835 54.3519C340.518 54.4559 340.268 54.3626 340.085 54.0719C339.902 53.7812 339.927 53.5098 340.16 53.2579C340.53 52.8906 340.83 52.4677 341.059 51.9891C341.144 51.8208 341.266 51.7107 341.424 51.6587C341.598 51.6015 341.769 51.6155 341.938 51.7006C342.101 51.7698 342.211 51.8915 342.268 52.0657C342.336 52.2189 342.327 52.3796 342.242 52.5479C341.95 53.1526 341.573 53.6885 341.112 54.1555C341.038 54.2501 340.946 54.3155 340.835 54.3519Z" fill="white"/>
</svg>
